<svg xmlns="http://www.w3.org/2000/svg" width="113.698" height="27.558"><defs><clipPath clipPathUnits="userSpaceOnUse" id="a"><path d="M4.856 47.144h79v-31h-79z"/></clipPath><clipPath clipPathUnits="userSpaceOnUse" id="b"><path d="M0 81h101V0H0z"/></clipPath><clipPath clipPathUnits="userSpaceOnUse" id="c"><path d="M6.853 74.207h14.221v-12.43H6.853z"/></clipPath><clipPath clipPathUnits="userSpaceOnUse" id="d"><path d="M0 81h101V0H0z"/></clipPath><clipPath clipPathUnits="userSpaceOnUse" id="e"><path d="M12.932 66.325h14.222V53.893H12.932z"/></clipPath><clipPath clipPathUnits="userSpaceOnUse" id="f"><path d="M10.977 70.116h14.064v-8.43H10.977z"/></clipPath><clipPath clipPathUnits="userSpaceOnUse" id="g"><path d="M9.061 66.46h14.064v-8.43H9.06z"/></clipPath><clipPath clipPathUnits="userSpaceOnUse" id="h"><path d="M14.654 66.327h4.64v-4.52h-4.64z"/></clipPath><clipPath clipPathUnits="userSpaceOnUse" id="i"><path d="M15.058 65.97h4.237v-4.163h-4.237z"/></clipPath><clipPath clipPathUnits="userSpaceOnUse" id="j"><path d="M8.623 72.508h14.234V61.773H8.623z"/></clipPath><clipPath clipPathUnits="userSpaceOnUse" id="k"><path d="M11.19 66.37h14.236V55.637H11.19z"/></clipPath><clipPath clipPathUnits="userSpaceOnUse" id="l"><path d="M7.048 66.383h14.293v-6.65H7.048z"/></clipPath><clipPath clipPathUnits="userSpaceOnUse" id="m"><path d="M12.75 68.345h14.293v-6.652H12.751z"/></clipPath></defs><path d="M17.26 17.166h-6.778v-6.778h6.778z" fill="#0084a9"/><path d="M19.091 0H.092l.002 17.165h3.41V3.41h18.998z" fill="#ad208e"/><g clip-path="url(#b)" transform="matrix(1.33333 0 0 -1.33333 -8.796 99.209)"><g clip-path="url(#c)" opacity=".33"><path d="M20.651 74.207H6.852l.001-12.387.382-.044v12.08l13.84.046z" fill="#231f20"/></g></g><path d="M8.746 17.16V8.65h18.997l-3.265-3.265H5.479V17.16z" fill="#f78f1e"/><path d="M8.652 27.558H27.65l-.001-17.165h-3.41v13.756H5.243z" fill="#009ddc"/><path d="M18.999 10.398v8.51H0l3.265 3.264h18.998V10.398z" fill="#c1d82f"/><g clip-path="url(#d)" transform="matrix(1.33333 0 0 -1.33333 -8.796 99.209)"><g clip-path="url(#e)" opacity=".2"><path d="M13.354 53.893h13.8l-.002 12.387-.382.045v-12.08L12.932 54.2z" fill="#231f20"/></g><g clip-path="url(#f)" opacity=".15"><path d="M24.815 70.116H10.977v-8.43h.27v8.158h13.794" fill="#231f20"/></g><g clip-path="url(#g)" opacity=".15"><path d="M9.286 58.03h13.838v8.431h-.27v-8.159H9.061" fill="#231f20"/></g><g clip-path="url(#h)" opacity=".25"><path d="M19.295 66.327h-4.641v-4.52h.242v4.237h4.399z" fill="#231f20"/></g><g clip-path="url(#i)" opacity=".25"><path d="M15.058 61.807h4.237v4.164h-.243v-3.882h-3.994z" fill="#fff"/></g><g clip-path="url(#j)" opacity=".2"><path d="M9.031 61.832v10.267h13.826l-.466.409H8.622V61.773z" fill="#fff"/></g><g clip-path="url(#k)" opacity=".2"><path d="M25.017 66.312V56.045H11.191l.467-.408h13.768V66.37z" fill="#fff"/></g><g clip-path="url(#l)" opacity=".25"><path d="M21.107 66.383v-6.417H7.047l.35-.234h13.944v6.651z" fill="#fff"/></g><g clip-path="url(#m)" opacity=".25"><path d="M12.984 61.693v6.417h14.06l-.35.234H12.75v-6.65z" fill="#fff"/></g><g><path d="M31.644 57.807v2.02a4.33 4.33 0 011.788-.35c1.262 0 2.079.66 2.079 2.37v9.618h2.603v-9.676c0-3.011-1.728-4.39-4.293-4.39-1.147 0-1.73.174-2.177.408" fill="#807f83"/></g><g><path d="M45.613 61.129v1.01h-1.205c-1.787 0-2.933-.408-2.933-1.651 0-.855.466-1.42 1.632-1.42 1.438 0 2.506.76 2.506 2.06m-6.47-.737c0 2.369 2.294 3.224 5.207 3.224h1.263v.524c0 1.362-.466 2.04-1.845 2.04-1.224 0-1.827-.581-1.944-1.592h-2.272c.194 2.37 2.079 3.36 4.352 3.36s4.06-.932 4.06-3.71v-6.665h-2.312v1.244c-.66-.875-1.554-1.437-3.108-1.437-1.866 0-3.4.893-3.4 3.012" fill="#807f83"/></g><g><path d="M52.549 67.734h2.525l2.663-7.751 2.623 7.75h2.31l-3.671-10.161h-2.74z" fill="#807f83"/></g><g><path d="M63.506 57.572v10.162m0 0h2.352V57.572h-2.352z" fill="#807f83"/></g><g><path d="M74.58 63.713c-.116 1.749-1.01 2.525-2.467 2.525-1.418 0-2.37-.952-2.603-2.525zm-7.518-1.166v.155c0 3.148 2.157 5.245 5.051 5.245 2.526 0 4.8-1.495 4.8-5.13v-.678H69.47c.077-1.922 1.048-3.012 2.797-3.012 1.418 0 2.158.565 2.332 1.555h2.273c-.33-2.138-2.06-3.303-4.663-3.303-2.99 0-5.148 1.963-5.148 5.168" fill="#807f83"/></g><g><path d="M76.834 67.734h2.506l2.021-7.343 2.157 7.343h1.962l1.982-7.343 2.116 7.343h2.293l-3.185-10.162h-2.389L84.41 64.41l-2.058-6.84h-2.41z" fill="#807f83"/></g><path d="M49.363 57.572h2.35v13.894h-2.35zM65.828 69.16h-2.314v2.316h2.314z" fill="#807f83"/></g></svg>