<?xml version="1.0" encoding="utf-8"?>
<!-- Generator: Adobe Illustrator 24.2.3, SVG Export Plug-In . SVG Version: 6.00 Build 0)  -->
<svg version="1.1" id="Layer_1" xmlns="http://www.w3.org/2000/svg" xmlns:xlink="http://www.w3.org/1999/xlink" x="0px" y="0px"
	 viewBox="0 0 342.1 103.7" style="enable-background:new 0 0 342.1 103.7;" xml:space="preserve">
<g>
	<path d="M12.3,72.4c3.3,2.3,7.8,4.5,12.9,4.5c6.6,0,11.1-4.2,11.1-11.3v-64h30.4v64.5c0,25.7-15.5,37.6-38.8,37.6
		c-9.8,0-20.1-2.1-27.9-8.1L12.3,72.4z"/>
	<path d="M74.1,51.8c0-31,23.7-51.8,54.4-51.8c27,0,40.3,15.3,46.3,29.2l-26.1,12.2c-2.6-7.8-10.4-14.6-20.1-14.6
		c-13.8,0-23.6,11.1-23.6,25.1S114.8,77,128.6,77c9.8,0,17.6-6.8,20.1-14.6l26.1,12c-5.9,13.4-19.2,29.3-46.3,29.3
		C97.8,103.7,74.1,82.6,74.1,51.8z"/>
	<path d="M172,1.7h34.4L228,69.2l21.6-67.5H284l-37,100.2h-38L172,1.7z"/>
	<path d="M289.6,1.7H320v100.2h-30.4V1.7z"/>
</g>
</svg>
