<?xml version="1.0" encoding="utf-8"?>
<!-- Generator: Adobe Illustrator 19.2.0, SVG Export Plug-In . SVG Version: 6.00 Build 0)  -->
<svg version="1.1" id="Layer_1" xmlns="http://www.w3.org/2000/svg" xmlns:xlink="http://www.w3.org/1999/xlink" x="0px" y="0px"
	 viewBox="0 0 349 68" style="enable-background:new 0 0 349 68;" xml:space="preserve">
<style type="text/css">
	.st0{fill:#E74C3C;}
	.st1{fill:#2C3E50;}
	.st2{fill:#FFFFFF;}
	.st3{fill:none;stroke:#FFFFFF;stroke-miterlimit:10;}
	.st4{fill:#626262;}
	.st5{opacity:0.3;fill:url(#SVGID_1_);}
	.st6{opacity:0.3;fill:url(#SVGID_2_);}
	.st7{opacity:0.3;fill:url(#SVGID_3_);}
	.st8{opacity:0.3;fill:url(#SVGID_4_);}
	.st9{fill:#FFFFFF;stroke:#FFFFFF;stroke-miterlimit:10;}
	.st10{opacity:0.75;fill:#FFFFFF;stroke:#FFFFFF;stroke-miterlimit:10;}
</style>
<image style="display:none;overflow:visible;" width="349" height="68" xlink:href="mega_logo.png" >
</image>
<rect class="st0" width="40" height="40"/>
<rect x="43" class="st1" width="40" height="40"/>
<rect x="86" class="st1" width="40" height="40"/>
<rect x="129" class="st1" width="40" height="40"/>
<polygon class="st2" points="69.5,28.9 56.5,28.9 56.5,11.1 69,11.1 69,12.4 57.9,12.4 57.9,19 68.3,19 68.3,20.3 57.9,20.3 
	57.9,27.6 69.5,27.6 "/>
<polygon class="st3" points="69.5,28.9 56.5,28.9 56.5,11.1 69,11.1 69,12.4 57.9,12.4 57.9,19 68.3,19 68.3,20.3 57.9,20.3 
	57.9,27.6 69.5,27.6 "/>
<path class="st2" d="M106.3,29.3c-1.3,0-2.4-0.2-3.5-0.7c-1.1-0.4-1.9-1.1-2.7-1.9c-0.8-0.8-1.3-1.8-1.7-2.9
	c-0.4-1.1-0.6-2.4-0.6-3.8c0-1.4,0.2-2.7,0.6-3.8c0.4-1.1,1-2.1,1.7-2.9c0.7-0.8,1.6-1.4,2.7-1.8c1-0.4,2.2-0.6,3.4-0.6
	c1,0,1.9,0.1,2.7,0.4c0.8,0.2,1.6,0.6,2.3,1c0.7,0.5,1.2,1,1.6,1.6c0.4,0.6,0.7,1.3,0.9,2.1h-1.4c-0.1-0.5-0.3-1-0.6-1.5
	c-0.3-0.5-0.8-0.9-1.3-1.2c-0.5-0.3-1.2-0.6-1.9-0.8c-0.7-0.2-1.5-0.3-2.3-0.3c-1,0-2,0.2-2.9,0.5c-0.9,0.3-1.6,0.8-2.2,1.5
	c-0.6,0.7-1.1,1.5-1.5,2.5c-0.3,1-0.5,2.1-0.5,3.4c0,1.3,0.2,2.4,0.5,3.4c0.3,1,0.8,1.8,1.5,2.5c0.6,0.7,1.4,1.2,2.3,1.6
	c0.9,0.4,1.8,0.5,2.9,0.5c1.5,0,2.8-0.3,3.9-0.8c1.1-0.6,2-1.3,2.8-2.3v-3.2H108v-1.3h6.2v8.7h-0.8l-0.6-2.4
	c-0.4,0.5-0.9,0.9-1.4,1.3c-0.5,0.3-1,0.6-1.6,0.8c-0.6,0.2-1.1,0.4-1.8,0.5C107.6,29.2,106.9,29.3,106.3,29.3"/>
<path class="st3" d="M106.3,29.3c-1.3,0-2.4-0.2-3.5-0.7c-1.1-0.4-1.9-1.1-2.7-1.9c-0.8-0.8-1.3-1.8-1.7-2.9
	c-0.4-1.1-0.6-2.4-0.6-3.8c0-1.4,0.2-2.7,0.6-3.8c0.4-1.1,1-2.1,1.7-2.9c0.7-0.8,1.6-1.4,2.7-1.8c1-0.4,2.2-0.6,3.4-0.6
	c1,0,1.9,0.1,2.7,0.4c0.8,0.2,1.6,0.6,2.3,1c0.7,0.5,1.2,1,1.6,1.6c0.4,0.6,0.7,1.3,0.9,2.1h-1.4c-0.1-0.5-0.3-1-0.6-1.5
	c-0.3-0.5-0.8-0.9-1.3-1.2c-0.5-0.3-1.2-0.6-1.9-0.8c-0.7-0.2-1.5-0.3-2.3-0.3c-1,0-2,0.2-2.9,0.5c-0.9,0.3-1.6,0.8-2.2,1.5
	c-0.6,0.7-1.1,1.5-1.5,2.5c-0.3,1-0.5,2.1-0.5,3.4c0,1.3,0.2,2.4,0.5,3.4c0.3,1,0.8,1.8,1.5,2.5c0.6,0.7,1.4,1.2,2.3,1.6
	c0.9,0.4,1.8,0.5,2.9,0.5c1.5,0,2.8-0.3,3.9-0.8c1.1-0.6,2-1.3,2.8-2.3v-3.2H108v-1.3h6.2v8.7h-0.8l-0.6-2.4
	c-0.4,0.5-0.9,0.9-1.4,1.3c-0.5,0.3-1,0.6-1.6,0.8c-0.6,0.2-1.1,0.4-1.8,0.5C107.6,29.2,106.9,29.3,106.3,29.3z"/>
<path class="st2" d="M157,28.9h-1.6l-2.2-5.7h-8.8c-0.3,0.9-0.7,1.9-1,2.9c-0.4,1-0.7,2-1.1,2.9H141c0.6-1.5,1.2-3.1,1.7-4.5
	c0.6-1.5,1.1-3,1.7-4.4c0.6-1.5,1.1-2.9,1.7-4.4c0.6-1.5,1.1-3,1.7-4.5h1.8L157,28.9z M152.9,22.2l-4.1-9.9l-3.9,9.9H152.9z"/>
<path class="st3" d="M157,28.9h-1.6l-2.2-5.7h-8.8c-0.3,0.9-0.7,1.9-1,2.9c-0.4,1-0.7,2-1.1,2.9H141c0.6-1.5,1.2-3.1,1.7-4.5
	c0.6-1.5,1.1-3,1.7-4.4c0.6-1.5,1.1-2.9,1.7-4.4c0.6-1.5,1.1-3,1.7-4.5h1.8L157,28.9z M152.9,22.2l-4.1-9.9l-3.9,9.9H152.9z"/>
<g>
	<path class="st4" d="M188,17.4l0-8.1l-3.6,7h-0.7l-3.6-7v8.1h-1.1V7.6h1.4l3.6,7.1l3.6-7.1h1.4v9.8H188z"/>
	<path class="st4" d="M198.6,13.7c0,2.2-1.6,3.7-3.7,3.7s-3.7-1.5-3.7-3.7c0-2.2,1.6-3.7,3.7-3.7S198.6,11.5,198.6,13.7z
		 M192.2,13.7c0,1.6,1.1,2.7,2.6,2.7s2.6-1.1,2.6-2.7c0-1.6-1.1-2.7-2.6-2.7S192.2,12.1,192.2,13.7z"/>
	<path class="st4" d="M200.6,17.4V7h1.1v10.4H200.6z"/>
	<path class="st4" d="M210.8,14.1h-6c0.2,1.4,1.2,2.4,2.7,2.4c0.9,0,1.7-0.3,2.3-0.9l0.6,0.6c-0.7,0.8-1.7,1.2-3,1.2
		c-2.2,0-3.7-1.5-3.7-3.7s1.5-3.7,3.7-3.7C209.7,10,210.9,11.6,210.8,14.1z M209.8,13.2c-0.1-1.4-1-2.3-2.5-2.3
		c-1.4,0-2.4,0.9-2.6,2.3H209.8z"/>
	<path class="st4" d="M218.4,11.1l-0.6,0.8c-0.6-0.5-1.3-0.9-2.2-0.9c-1.5,0-2.6,1.1-2.6,2.7s1.1,2.7,2.6,2.7c1,0,1.8-0.3,2.3-1
		l0.6,0.7c-0.7,0.8-1.7,1.3-3,1.3c-2.1,0-3.7-1.5-3.7-3.7s1.5-3.7,3.7-3.7C216.7,10,217.7,10.4,218.4,11.1z"/>
	<path class="st4" d="M226.9,17.4h-1.1v-1.7c-0.5,1.1-1.5,1.7-2.8,1.7c-1.7,0-2.8-1.1-2.8-2.9V10h1.1v4.3c0,1.3,0.8,2.1,2,2.1
		c1.5,0,2.4-1.1,2.4-2.7V10h1.1V17.4z"/>
	<path class="st4" d="M229.6,17.4V7h1.1v10.4H229.6z"/>
	<path class="st4" d="M238,16.2c-0.6,0.8-1.5,1.2-2.7,1.2c-1.5,0-2.5-1-2.5-2.3c0-1.3,1-2.1,2.8-2.1h2.4v-0.4c0-1.1-0.7-1.7-2-1.7
		c-0.8,0-1.6,0.3-2.3,0.8l-0.5-0.8c1-0.6,1.8-1,3-1c1.8,0,2.8,1,2.8,2.5l0,4.9H238V16.2z M238,14.8V14h-2.3c-1.2,0-1.9,0.4-1.9,1.2
		s0.7,1.3,1.7,1.3C236.8,16.5,237.7,15.9,238,14.8z"/>
	<path class="st4" d="M242.6,11.6c0.5-1.1,1.4-1.7,2.6-1.7v1.1c-1.6,0-2.5,0.9-2.6,2.4v3.9h-1.1V10h1.1V11.6z"/>
	<path class="st4" d="M251.8,8.7v3.2h4.9V13h-4.9v3.4h5.7v1.1h-6.8V7.6h6.7v1.1H251.8z"/>
	<path class="st4" d="M261.3,17.4l-2.9-7.4h1.2l2.4,6.2l2.3-6.2h1.1l-2.9,7.4H261.3z"/>
	<path class="st4" d="M273.4,13.7c0,2.2-1.6,3.7-3.7,3.7c-2.2,0-3.7-1.5-3.7-3.7c0-2.2,1.6-3.7,3.7-3.7
		C271.8,10,273.4,11.5,273.4,13.7z M267,13.7c0,1.6,1.1,2.7,2.6,2.7c1.5,0,2.6-1.1,2.6-2.7c0-1.6-1.1-2.7-2.6-2.7
		C268.1,11,267,12.1,267,13.7z"/>
	<path class="st4" d="M275.4,17.4V7h1.1v10.4H275.4z"/>
	<path class="st4" d="M285.6,17.4h-1.1v-1.7c-0.5,1.1-1.5,1.7-2.8,1.7c-1.7,0-2.8-1.1-2.8-2.9V10h1.1v4.3c0,1.3,0.8,2.1,2,2.1
		c1.5,0,2.4-1.1,2.4-2.7V10h1.1V17.4z"/>
	<path class="st4" d="M292,16.9c-0.5,0.4-1.1,0.5-1.7,0.6c-1.1,0-1.9-0.6-1.9-2.1v-4.2h-1.1v-0.9h1.1V8.3h1.1v1.9l2.3,0v0.9h-2.3v4
		c0,0.9,0.4,1.2,1,1.2c0.4,0,0.8-0.1,1.2-0.4L292,16.9z"/>
	<path class="st4" d="M294.9,7.9c0,0.4-0.3,0.8-0.7,0.8s-0.7-0.3-0.7-0.8s0.3-0.8,0.7-0.8S294.9,7.5,294.9,7.9z M293.7,17.4V10h1.1
		v7.4H293.7z"/>
	<path class="st4" d="M304.2,13.7c0,2.2-1.6,3.7-3.7,3.7c-2.2,0-3.7-1.5-3.7-3.7c0-2.2,1.6-3.7,3.7-3.7
		C302.6,10,304.2,11.5,304.2,13.7z M297.8,13.7c0,1.6,1.1,2.7,2.6,2.7c1.5,0,2.6-1.1,2.6-2.7c0-1.6-1.1-2.7-2.6-2.7
		C298.9,11,297.8,12.1,297.8,13.7z"/>
	<path class="st4" d="M312.8,12.8v4.6h-1.1v-4.3c0-1.3-0.8-2.1-2.1-2.1c-1.5,0-2.4,1-2.5,2.4v4h-1.1V10h1.1v1.6
		c0.5-1.1,1.5-1.7,2.9-1.7C311.8,10,312.8,11.1,312.8,12.8z"/>
	<path class="st4" d="M319.9,16.2c-0.6,0.8-1.5,1.2-2.7,1.2c-1.5,0-2.5-1-2.5-2.3c0-1.3,1-2.1,2.8-2.1h2.4v-0.4c0-1.1-0.7-1.7-2-1.7
		c-0.8,0-1.6,0.3-2.3,0.8L315,11c1-0.6,1.8-1,3-1c1.8,0,2.8,1,2.8,2.5l0,4.9h-1.1V16.2z M319.8,14.8V14h-2.3c-1.2,0-1.9,0.4-1.9,1.2
		s0.7,1.3,1.7,1.3C318.6,16.5,319.6,15.9,319.8,14.8z"/>
	<path class="st4" d="M324.4,11.6c0.5-1.1,1.4-1.7,2.6-1.7v1.1c-1.6,0-2.5,0.9-2.6,2.4v3.9h-1.1V10h1.1V11.6z"/>
	<path class="st4" d="M330.9,18.4c-0.5,1.1-1.2,1.7-2.2,1.7c-0.6,0-1.1-0.2-1.6-0.5l0.5-0.9c0.3,0.2,0.7,0.4,1,0.4
		c0.6,0,1.1-0.4,1.3-1l0.3-0.7l-3.1-7.3h1.1l2.5,6.1l2.3-6.1h1.1L330.9,18.4z"/>
</g>
<g>
	<path class="st4" d="M186.9,29.6v3.6c-1,0.8-2.3,1.3-3.6,1.3c-2.8,0-5.1-2.2-5.1-5c0-2.8,2.3-4.9,5.2-4.9c1.4,0,2.7,0.5,3.6,1.3
		l-0.6,0.8c-0.8-0.7-1.9-1.1-3-1.1c-2.2,0-4,1.7-4,3.9c0,2.2,1.8,3.9,4,3.9c0.9,0,1.8-0.3,2.6-0.8v-3H186.9z"/>
	<path class="st4" d="M195.9,31.1h-6c0.2,1.4,1.2,2.4,2.7,2.4c0.9,0,1.7-0.3,2.3-0.9l0.6,0.6c-0.7,0.8-1.7,1.2-3,1.2
		c-2.2,0-3.7-1.5-3.7-3.7s1.5-3.7,3.7-3.7C194.8,27,196,28.6,195.9,31.1z M194.9,30.2c-0.1-1.4-1-2.3-2.5-2.3
		c-1.4,0-2.4,0.9-2.6,2.3H194.9z"/>
	<path class="st4" d="M204.5,29.8v4.6h-1.1v-4.3c0-1.3-0.8-2.1-2.1-2.1c-1.5,0-2.4,1-2.5,2.4v4h-1.1V27h1.1v1.6
		c0.5-1.1,1.5-1.7,2.9-1.7C203.4,27,204.5,28.1,204.5,29.8z"/>
	<path class="st4" d="M213.3,31.1h-6c0.2,1.4,1.2,2.4,2.7,2.4c0.9,0,1.7-0.3,2.3-0.9l0.6,0.6c-0.7,0.8-1.7,1.2-3,1.2
		c-2.2,0-3.7-1.5-3.7-3.7s1.5-3.7,3.7-3.7C212.2,27,213.4,28.6,213.3,31.1z M212.3,30.2c-0.1-1.4-1-2.3-2.5-2.3
		c-1.4,0-2.4,0.9-2.6,2.3H212.3z"/>
	<path class="st4" d="M219,33.9c-0.5,0.4-1.1,0.5-1.7,0.6c-1.1,0-1.9-0.6-1.9-2.1v-4.2h-1.1v-0.9h1.1v-1.9h1.1v1.9l2.3,0v0.9h-2.3v4
		c0,0.9,0.3,1.2,1,1.2c0.4,0,0.8-0.1,1.2-0.4L219,33.9z"/>
	<path class="st4" d="M221.9,24.9c0,0.4-0.3,0.8-0.7,0.8s-0.7-0.3-0.7-0.8c0-0.4,0.3-0.8,0.7-0.8S221.9,24.5,221.9,24.9z
		 M220.6,34.4V27h1.1v7.4H220.6z"/>
	<path class="st4" d="M230.1,28.1l-0.6,0.8c-0.6-0.5-1.3-0.9-2.2-0.9c-1.5,0-2.6,1.1-2.6,2.7c0,1.6,1.1,2.7,2.6,2.7
		c1,0,1.8-0.3,2.3-1l0.6,0.7c-0.7,0.8-1.7,1.3-3,1.3c-2.1,0-3.7-1.5-3.7-3.7s1.5-3.7,3.7-3.7C228.4,27,229.4,27.4,230.1,28.1z"/>
	<path class="st4" d="M236.5,27.6l-0.4,0.9c-0.6-0.4-1.3-0.6-2-0.6c-0.8,0-1.5,0.3-1.5,1c0,1.6,4.1,0.8,4.1,3.4
		c0,1.5-1.3,2.1-2.7,2.1c-1.1,0-2.1-0.4-2.8-1l0.4-0.8c0.6,0.6,1.6,0.9,2.5,0.9c0.9,0,1.6-0.3,1.6-1.1c0-1.8-4.1-0.9-4.1-3.5
		c0-1.4,1.2-2,2.6-2C235,27,235.9,27.2,236.5,27.6z"/>
	<path class="st4" d="M243.4,31.9l-1.1,2.5h-1.2l4.4-9.8h1.2l4.4,9.8h-1.2l-1.1-2.5H243.4z M246,25.9l-2.2,5h4.4L246,25.9z"/>
	<path class="st4" d="M259.2,29.8v4.6h-1.1v-4.3c0-1.3-0.8-2.1-2.1-2.1c-1.5,0-2.4,1-2.5,2.4v4h-1.1V27h1.1v1.6
		c0.5-1.1,1.5-1.7,2.9-1.7C258.1,27,259.2,28.1,259.2,29.8z"/>
	<path class="st4" d="M266.2,33.3c-0.6,0.8-1.5,1.2-2.7,1.2c-1.5,0-2.5-1-2.5-2.3c0-1.3,1-2.1,2.8-2.1h2.4v-0.4c0-1.1-0.7-1.7-2-1.7
		c-0.8,0-1.6,0.3-2.3,0.8l-0.5-0.8c1-0.6,1.8-1,3-1c1.8,0,2.8,1,2.8,2.5l0,4.9h-1.1V33.3z M266.2,31.8V31h-2.3
		c-1.2,0-1.9,0.4-1.9,1.2s0.7,1.3,1.7,1.3C264.9,33.5,265.9,32.9,266.2,31.8z"/>
	<path class="st4" d="M269.8,34.4V24h1.1v10.4H269.8z"/>
	<path class="st4" d="M275.9,35.4c-0.5,1.1-1.2,1.7-2.2,1.7c-0.6,0-1.1-0.2-1.6-0.5l0.5-0.9c0.3,0.2,0.7,0.4,1,0.4
		c0.6,0,1.1-0.4,1.3-1l0.3-0.7l-3.1-7.3h1.1l2.5,6.1l2.3-6.1h1.1L275.9,35.4z"/>
	<path class="st4" d="M284.9,27.6l-0.4,0.9c-0.6-0.4-1.3-0.6-2-0.6c-0.8,0-1.5,0.3-1.5,1c0,1.6,4.1,0.8,4.1,3.4
		c0,1.5-1.3,2.1-2.7,2.1c-1.1,0-2.1-0.4-2.8-1l0.4-0.8c0.6,0.6,1.6,0.9,2.5,0.9c0.9,0,1.6-0.3,1.6-1.1c0-1.8-4.1-0.9-4.1-3.5
		c0-1.4,1.2-2,2.6-2C283.5,27,284.3,27.2,284.9,27.6z"/>
	<path class="st4" d="M288.2,24.9c0,0.4-0.3,0.8-0.7,0.8s-0.7-0.3-0.7-0.8c0-0.4,0.3-0.8,0.7-0.8S288.2,24.5,288.2,24.9z M287,34.4
		V27h1.1v7.4H287z"/>
	<path class="st4" d="M295,27.6l-0.4,0.9c-0.6-0.4-1.3-0.6-2-0.6c-0.8,0-1.5,0.3-1.5,1c0,1.6,4.1,0.8,4.1,3.4c0,1.5-1.3,2.1-2.7,2.1
		c-1.1,0-2.1-0.4-2.8-1l0.4-0.8c0.6,0.6,1.6,0.9,2.5,0.9c0.9,0,1.6-0.3,1.6-1.1c0-1.8-4.1-0.9-4.1-3.5c0-1.4,1.2-2,2.6-2
		C293.5,27,294.4,27.2,295,27.6z"/>
</g>
<polygon class="st2" points="28.4,28.9 27.1,28.9 27.1,13.2 20.7,28.9 19.3,28.9 12.9,13.2 12.9,28.9 11.6,28.9 11.6,11.1 
	13.5,11.1 20,27.3 26.6,11.1 28.4,11.1 "/>
<polygon class="st3" points="28.4,28.9 27.1,28.9 27.1,13.2 20.7,28.9 19.3,28.9 12.9,13.2 12.9,28.9 11.6,28.9 11.6,11.1 
	13.5,11.1 20,27.3 26.6,11.1 28.4,11.1 "/>
<linearGradient id="SVGID_1_" gradientUnits="userSpaceOnUse" x1="20" y1="40.0001" x2="20" y2="62.4167">
	<stop  offset="8.374384e-002" style="stop-color:#E74C3C"/>
	<stop  offset="0.1451" style="stop-color:#E96052"/>
	<stop  offset="0.302" style="stop-color:#EE8E84"/>
	<stop  offset="0.4569" style="stop-color:#F2B5AE"/>
	<stop  offset="0.6067" style="stop-color:#F5D2CF"/>
	<stop  offset="0.7501" style="stop-color:#F7E8E6"/>
	<stop  offset="0.8843" style="stop-color:#F9F5F4"/>
	<stop  offset="1" style="stop-color:#F9F9F9"/>
</linearGradient>
<rect x="0" y="40" class="st5" width="40" height="22.4"/>
<linearGradient id="SVGID_2_" gradientUnits="userSpaceOnUse" x1="63.0001" y1="40.0001" x2="63.0001" y2="62.4167">
	<stop  offset="8.374384e-002" style="stop-color:#2C3E50"/>
	<stop  offset="0.1834" style="stop-color:#52616F"/>
	<stop  offset="0.3332" style="stop-color:#848F99"/>
	<stop  offset="0.4812" style="stop-color:#AEB5BB"/>
	<stop  offset="0.6244" style="stop-color:#CFD3D6"/>
	<stop  offset="0.7614" style="stop-color:#E6E8E9"/>
	<stop  offset="0.8895" style="stop-color:#F4F5F5"/>
	<stop  offset="1" style="stop-color:#F9F9F9"/>
</linearGradient>
<rect x="43" y="40" class="st6" width="40" height="22.4"/>
<linearGradient id="SVGID_3_" gradientUnits="userSpaceOnUse" x1="106.0001" y1="40.0001" x2="106.0001" y2="62.4167">
	<stop  offset="8.374384e-002" style="stop-color:#2C3E50"/>
	<stop  offset="0.1834" style="stop-color:#52616F"/>
	<stop  offset="0.3332" style="stop-color:#848F99"/>
	<stop  offset="0.4812" style="stop-color:#AEB5BB"/>
	<stop  offset="0.6244" style="stop-color:#CFD3D6"/>
	<stop  offset="0.7614" style="stop-color:#E6E8E9"/>
	<stop  offset="0.8895" style="stop-color:#F4F5F5"/>
	<stop  offset="1" style="stop-color:#F9F9F9"/>
</linearGradient>
<rect x="86" y="40" class="st7" width="40" height="22.4"/>
<linearGradient id="SVGID_4_" gradientUnits="userSpaceOnUse" x1="149.0001" y1="40.0001" x2="149.0001" y2="62.4167">
	<stop  offset="8.374384e-002" style="stop-color:#2C3E50"/>
	<stop  offset="0.1834" style="stop-color:#52616F"/>
	<stop  offset="0.3332" style="stop-color:#848F99"/>
	<stop  offset="0.4812" style="stop-color:#AEB5BB"/>
	<stop  offset="0.6244" style="stop-color:#CFD3D6"/>
	<stop  offset="0.7614" style="stop-color:#E6E8E9"/>
	<stop  offset="0.8895" style="stop-color:#F4F5F5"/>
	<stop  offset="1" style="stop-color:#F9F9F9"/>
</linearGradient>
<rect x="129" y="40" class="st8" width="40" height="22.4"/>
<polygon class="st9" points="69.5,46.2 56.5,46.2 56.5,58.8 69,58.8 69,57.9 57.9,57.9 57.9,53.2 68.3,53.2 68.3,52.3 57.9,52.3 
	57.9,47.2 69.5,47.2 "/>
<path class="st9" d="M106.3,46c-1.3,0-2.4,0.2-3.5,0.5c-1.1,0.3-1.9,0.8-2.7,1.3c-0.8,0.6-1.3,1.3-1.7,2.1c-0.4,0.8-0.6,1.7-0.6,2.7
	c0,1,0.2,1.9,0.6,2.7c0.4,0.8,1,1.5,1.7,2c0.7,0.6,1.6,1,2.7,1.3c1,0.3,2.2,0.5,3.4,0.5c1,0,1.9-0.1,2.7-0.3
	c0.8-0.2,1.6-0.4,2.3-0.7c0.7-0.3,1.2-0.7,1.6-1.1c0.4-0.4,0.7-0.9,0.9-1.5h-1.4c-0.1,0.4-0.3,0.7-0.6,1c-0.3,0.3-0.8,0.6-1.3,0.9
	c-0.5,0.2-1.2,0.4-1.9,0.6c-0.7,0.1-1.5,0.2-2.3,0.2c-1,0-2-0.1-2.9-0.4c-0.9-0.2-1.6-0.6-2.2-1.1c-0.6-0.5-1.1-1-1.5-1.7
	c-0.3-0.7-0.5-1.5-0.5-2.4c0-0.9,0.2-1.7,0.5-2.4c0.3-0.7,0.8-1.3,1.5-1.8c0.6-0.5,1.4-0.8,2.3-1.1c0.9-0.2,1.8-0.4,2.9-0.4
	c1.5,0,2.8,0.2,3.9,0.6c1.1,0.4,2,0.9,2.8,1.6v2.3H108v0.9h6.2v-6.1h-0.8l-0.6,1.7c-0.4-0.4-0.9-0.6-1.4-0.9c-0.5-0.2-1-0.4-1.6-0.6
	c-0.6-0.1-1.1-0.3-1.8-0.3C107.6,46.1,107,46,106.3,46"/>
<path class="st9" d="M149.7,58.8h-1.8c-0.6-1.1-1.2-2.1-1.7-3.2c-0.6-1-1.1-2.1-1.7-3.1c-0.6-1-1.1-2.1-1.7-3.1
	c-0.6-1-1.1-2.1-1.7-3.2h1.4c0.3,0.6,0.7,1.3,1.1,2c0.4,0.7,0.7,1.4,1,2h8.8l2.2-4h1.6L149.7,58.8z M144.8,51l3.9,7l4.1-7H144.8z"/>
<polygon class="st10" points="28.4,46.2 27.1,46.2 27.1,57.3 20.7,46.2 19.3,46.2 12.9,57.3 12.9,46.2 11.6,46.2 11.6,58.8 
	13.5,58.8 20,47.4 26.6,58.8 28.4,58.8 "/>
</svg>
