<?xml version="1.0" encoding="utf-8"?>
<!-- Generator: Adobe Illustrator 16.0.0, SVG Export Plug-In . SVG Version: 6.00 Build 0)  -->
<!DOCTYPE svg PUBLIC "-//W3C//DTD SVG 1.1//EN" "http://www.w3.org/Graphics/SVG/1.1/DTD/svg11.dtd">
<svg version="1.1" id="图层_1" xmlns="http://www.w3.org/2000/svg" xmlns:xlink="http://www.w3.org/1999/xlink" x="0px" y="0px"
	 width="130px" height="20px" viewBox="0 -0.969 130 20" enable-background="new 0 -0.969 130 20" xml:space="preserve">
<g>
	<path fill="#27313B" d="M7.741,0L0,0.013v17.453h7.741c4.062-0.008,6.036-2.856,6.036-8.706C13.776,2.865,11.802,0,7.741,0z
		 M7.106,14.465h-3.96V2.908h3.96c2.216,0,3.339,1.928,3.339,5.731C10.445,12.505,9.322,14.465,7.106,14.465z"/>
	<path fill="#27313B" d="M16.233,14.774c0,2.104,1.196,3.127,3.656,3.127h7.728v-2.975h-8.118v-4.298h6.809v-2.92h-6.809V3.37h8.118
		V0.408h-7.728c-2.459,0.024-3.656,0.909-3.656,2.703V14.774z"/>
	<path fill="#27313B" d="M41.355,8.485l-0.052-0.02l-2.945-0.685c-1.383-0.317-2.41-0.552-3.079-0.701
		c-0.759-0.266-1.13-0.891-1.13-1.865c0.028-0.773,0.402-1.707,2.027-1.818h6.369V0.448H36.25c-0.042,0.009-0.092,0.014-0.151,0.014
		L35.8,0.473l-0.016-0.13l0.005,0.131c-0.311,0.008-0.648,0.047-1.005,0.115c-0.969,0.162-1.735,0.441-2.284,0.832
		c-0.618,0.418-1.116,0.997-1.483,1.723c-0.35,0.708-0.523,1.463-0.515,2.24c0.017,0.853,0.215,1.643,0.592,2.347
		c0.385,0.729,0.914,1.315,1.572,1.748c0.453,0.306,0.981,0.54,1.575,0.7l0.107,0.02c0.521,0.097,1.289,0.246,2.304,0.448
		l2.307,0.469c1.108,0.314,1.341,1.063,1.341,1.638c0.078,0.78-0.138,1.371-0.645,1.731c-0.437,0.282-1.199,0.417-2.34,0.417
		L31.558,14.9v3l7.384-0.012c0.41-0.018,0.761-0.047,1.034-0.09c0.798-0.15,1.481-0.425,2.023-0.816
		c0.682-0.481,1.2-1.149,1.542-1.982c0.269-0.663,0.405-1.33,0.405-1.983c0-0.218-0.013-0.442-0.038-0.673
		C43.839,10.361,43.004,9.105,41.355,8.485z"/>
	<rect x="47.61" y="0.448" fill="#27313B" width="3.172" height="17.519"/>
	<path fill="#27313B" d="M54.313,9.156c0,5.885,2.187,8.745,6.684,8.745h5.705V9.955H63.53v5.011h-0.853
		c-3.392,0-5.111-1.599-5.111-4.754V8.229c0-3.216,1.782-4.846,5.296-4.846h3.841V0.408h-5.705C56.5,0.408,54.313,3.27,54.313,9.156
		z"/>
	<path fill="#27313B" d="M71.295,0.224c-0.191-0.051-0.361-0.079-0.488-0.079c-0.113,0-0.257,0.022-0.427,0.066l-0.034,0.012
		c-0.334,0.117-0.596,0.305-0.797,0.576c-0.195,0.29-0.296,0.601-0.296,0.911v16.203h3.134V6.988l7.452,10.434
		c0.212,0.272,0.468,0.458,0.774,0.558c0.295,0.104,0.638,0.113,0.955,0.002c0.343-0.116,0.602-0.305,0.793-0.571
		c0.201-0.271,0.299-0.569,0.299-0.916V0.435h-3.133v10.769L72.088,0.782C71.877,0.519,71.615,0.333,71.295,0.224z"/>
	<path fill="#EB5931" d="M85.211,9.156c0,5.885,2.188,8.745,6.684,8.745h5.838v-2.935h-3.975c-3.514,0-5.296-1.599-5.296-4.754
		V8.229c0-3.216,1.763-4.847,5.239-4.847h4.029V0.408h-5.838C87.396,0.408,85.211,3.27,85.211,9.156z"/>
	<path fill="#EB5931" d="M125.6,0.448l-8.266-0.039v17.465h3.04c0.001-0.791,0.005-1.926,0.015-3.406v-3.893h5.188
		c2.976,0,4.423-1.654,4.423-5.058C130,2.107,128.561,0.448,125.6,0.448z M124.005,7.694H120.4V3.369l3.604,0.014
		c2.354,0,2.85,1.162,2.85,2.136C126.854,6.511,126.359,7.694,124.005,7.694z"/>
	<path fill="#EB5931" d="M108.021,0.529l-0.08-0.051c-0.463-0.233-0.953-0.25-1.508,0.06c-0.207,0.137-0.369,0.312-0.48,0.527
		l-0.018,0.044c-0.722,1.939-1.789,4.792-3.199,8.557c-1.332,3.555-2.361,6.296-3.088,8.224h3.151
		c0.515-1.352,4.052-10.596,4.212-11.016l0.227-0.595l4.521,11.622h3.166l-6.397-16.84C108.414,0.847,108.248,0.673,108.021,0.529z"
		/>
</g>
</svg>
