<svg height="40" width="40" xmlns="http://www.w3.org/2000/svg"><mask id="m"><rect width="100%" height="100%" fill="white"/><path d="M0 10Q15 12 21-1M0 23Q25 23 25 0M2 30Q32 42 40 10M0 12Q21 19 19 40M4 6Q38 4 32 38M26 40Q21 15 38 9" fill="none" stroke-width="1.5px" stroke="black"/><path d="M15.5 5a2 1.5-20 1 0 0.1 0zM23.5 7a2.5 2.5 0 1 0 0.1 0zM29.3 12.5a2.3 2.3 0 1 0 0.1 0zM13.5 18a2.5 2.5 0 1 0 0.1 0zM32.8 23.5a2.2 2.2 0 1 0 0.1 0zM24.9 29.7a2 2 0 1 0 0.1 0zM19 31a2 2 0 1 0 0.1 0z" fill="black"/></mask><linearGradient id="g" x1="0" y1="100%" x2="0" y2="0"><stop offset="0" stop-color="#999999"/><stop offset="50%" stop-color="white"/></linearGradient><circle cx="20" cy="20" r="20" mask="url(#m)" fill="url(#g)"/></svg>