<svg enable-background="new 0 0 387.1 75.2" height="75.2" viewBox="0 0 387.1 75.2" width="387.1" xmlns="http://www.w3.org/2000/svg"><g fill="#dc3e15"><path d="m131.3 34.3h-4.6v-3.8h4.5c.3-.3.3-.5.3-.6 0-1.4 0-2.6 0-4 0-1.6.3-3.1 1-4.5 1.5-2.9 4-4.5 7.3-4.6 1.1 0 2.1 0 3.3.3.1 0 .4.1.5.3v3.9c-.3.1-.4-.1-.5-.1-1.3-.5-2.4-.6-3.6-.4-1.3.3-2.1.9-2.6 2-.4.6-.6 1.4-.6 2.1-.1 1.9 0 3.8-.1 5.8h10.7c.1-.3.1-.4.1-.6 0-1.4 0-2.9 0-4.3 0-2.5.9-4.8 2.6-6.7 1.5-1.4 3.1-2.1 5.2-2.4 1.1-.1 2.3-.1 3.4.3.3 0 .5.1.8.3v3.9c-.8-.3-1.4-.5-2.1-.6-.8-.1-1.5 0-2.3.1-1.3.3-2.1 1-2.6 2.1-.4.8-.5 1.6-.6 2.5v5c0 .1 0 .1.1.3h6.4v3.8h-6.9v24h-4.5c0-1.1 0-2.3 0-3.4s0-2.3 0-3.4v-17h-10.8v23.9h-4.5c0-.9 0-1.8 0-2.6 0-.9 0-1.8 0-2.6z"/><path d="m86.8 39.3c0-3.8.6-7.3 2.3-10.7 2.5-5.2 6.7-8.3 12.2-9.4 3.4-.8 6.7-.6 9.9.4 5.4 1.6 8.9 5.3 10.9 10.4 1.3 3.4 1.6 6.8 1.4 10.4-.1 2.4-.5 4.6-1.4 6.9-2.4 6.4-6.9 10.3-13.7 11.4-3.8.6-7.5.4-11.1-1.3-4.5-2-7.5-5.4-9.2-9.9-.9-2.7-1.3-5.4-1.3-8.2zm32-.6c0-.5 0-1.4-.1-2.1-.3-2.4-.6-4.6-1.8-6.8-1.4-2.9-3.5-4.9-6.5-6-1.5-.5-3-.8-4.5-.9-5.3-.1-9.3 2-11.9 6.5-1.4 2.3-2 4.6-2.3 7.3-.3 3.3 0 6.5 1.3 9.7 1.4 3.4 3.5 5.9 6.9 7.4 2.1.9 4.4 1.1 6.7.9 5-.5 8.7-3 10.7-7.5 1.2-2.6 1.5-5.4 1.5-8.5z"/><path d="m219 45.6h-19.6c-.1 1 .1 1.9.3 2.8.3 1.4.8 2.6 1.6 3.8 1.4 1.8 3.1 2.6 5.3 3 3.5.5 6.8-.4 9.7-2.4.1-.1.4-.3.5-.4h.1c.1.3.1.4.1.6v2.8c0 .5-.1.9-.6 1.1-1.4.9-3 1.5-4.6 1.8-2.5.5-5 .6-7.4.1-4.1-.8-6.9-3.3-8.4-7.2-.6-1.5-1-3-1.1-4.6-.3-2.8-.1-5.4.8-8 1.3-3.4 3.1-6.2 6.5-7.7 3.3-1.6 6.7-1.6 10.1-.4 2.9 1.1 4.8 3.3 5.9 6.2.6 1.6.9 3.4 1 5.2-.2.8-.2 2-.2 3.3zm-4.6-3.9c0-2-.4-3.9-1.5-5.5-.6-.9-1.4-1.6-2.5-2-2.5-.9-4.9-.8-7.2.8s-3.4 4-3.9 6.8c5.1-.1 10-.1 15.1-.1z"/><path d="m191.6 31.3v4.4c-.3 0-.5-.3-.8-.4-2-1.3-4.1-1.8-6.5-1.6-3.5.3-5.9 1.9-7.7 4.9-.8 1.4-1.1 2.8-1.4 4.3-.3 2-.1 4.1.5 6.2 1.3 3.8 4.4 6.2 8.4 6.2 2.4 0 4.5-.6 6.5-1.9.3-.1.4-.3.6-.4v4c-.1.1-.3.3-.5.4-4.3 2.1-8.8 2.3-13.2.4-3.1-1.4-5.3-3.9-6.3-7.2-1.5-4.5-1.3-8.9.9-13.2s5.8-6.7 10.6-7.3c2.5-.3 5-.1 7.4.8.6 0 1 .1 1.5.4z"/><path d="m166 58.3h-4.3c-.1-.5-.3-26.3-.1-27.6.5-.1 3.4-.1 4.4 0 .1.4.1 26.8 0 27.6z"/><path d="m160.9 20.6c0-1.6 1.4-2.9 3-2.8 1.6 0 2.9 1.4 2.9 3s-1.4 2.9-3 2.8-2.9-1.4-2.9-3z"/><path d="m259.2 49.6c-1.1 3.7-3.8 6.6-8.8 6.6-6.7 0-10.3-5.4-10.3-12 0-6.4 3.5-12.1 10.3-12.1 5.1 0 8.1 2.8 8.8 6.7h-1.8c-1.1-3.1-3.1-5.1-7.1-5.1-5.8 0-8.3 5.4-8.3 10.5s2.4 10.3 8.4 10.3c3.8 0 5.7-2 7-4.8-.1-.1 1.8-.1 1.8-.1z"/><path d="m277.3 47.5c0 4.7-2.6 8.8-7.6 8.8-4.6 0-7.3-3.7-7.3-8.8 0-4.8 2.7-8.8 7.5-8.8 4.3 0 7.4 3.5 7.4 8.8zm-13.3 0c0 3.9 2.1 7.2 5.7 7.2 3.7 0 5.6-3 5.6-7.2 0-3.9-2-7.2-5.7-7.2-3.8-.1-5.6 3.2-5.6 7.2z"/><path d="m281.4 43.3c0-1.5 0-2.9 0-4.3h1.7c.1.5.1 2.7.1 3.2.7-1.7 2-3.6 5.5-3.6 3 0 5.6 1.7 5.6 6.4v10.9h-1.8v-10.7c0-3-1.3-4.9-4.2-4.9-3.9 0-5.4 3.4-5.4 7.1v8.5h-1.7z"/></g><path d="m318.6 50.4c2.3 3.7 5.4 4.9 8.3 3.3 2.7-1.6 2.8-3.7 2.6-5.2l1.4-.9c.5 2.3.3 5.4-3.3 7.4-4.4 2.6-8.3-.2-10.5-3.8-2.5-4.2-2.5-8.9 1.7-11.5 4.5-2.7 8.2.3 9.8 3.1.2.3.5.8.7 1.2zm8.5-6.8c-1.7-2.9-4.7-4.2-7.4-2.5-3 1.8-3.1 4.7-1.6 7.9z" fill="#4caf50"/><path d="m334.4 43.6c0-2.8 0-4.1 0-4.6h1.7c0 .5.1 1.6.1 3.7 1-2.5 3.2-4.1 5.8-4.2v1.8c-3.5.2-5.8 2.7-5.8 6.6v8.8h-1.8z" fill="#dc3e15"/><path d="m343.7 39h3.2v-5.3h1.7v5.3h3.9v1.6h-3.9v10.9c0 1.9.3 3 2 3 .5 0 1.2 0 1.8-.2v1.5c-.6.2-1.4.3-2 .3-2.1 0-3.4-1.1-3.4-3.7v-11.8h-3.2v-1.6z" fill="#dc3e15"/><path d="m356.2 47.6c0 4.4 2.1 7.1 5.4 7.1 3.2 0 4.3-1.8 4.8-3.2h1.7c-.7 2.1-2.5 4.8-6.6 4.8-5.2 0-7.1-4.4-7.1-8.8 0-4.8 2.4-8.9 7.3-8.9 5.2 0 6.9 4.5 6.9 7.6v1.4zm10.7-1.5c0-3.4-1.9-6-5.2-6-3.5 0-5.1 2.4-5.4 6z" fill="#dc3e15"/><path d="m372.7 43.6c0-2.8 0-4.1 0-4.6h1.7c0 .5.1 1.6.1 3.7 1-2.5 3.2-4.1 5.8-4.2v1.8c-3.5.2-5.8 2.7-5.8 6.6v8.8h-1.7z" fill="#dc3e15"/><path d="m265.6 32.1h31.6l8.4 23.8h2l6.4-17h-1.8l-5.6 15.4-8.3-23.6h-32.6z" fill="#4caf50"/><path d="m28.3 7.5c-.9 4.9-2.1 12.2-2.7 19.5-1.1 13-.4 21.7-.4 21.7l-18.3 17.4s-1.4-9.7-2.1-20.7c-.4-6.8-.6-12.8-.6-16.4 0-.2.1-.4.1-.6 0-.3.3-2.7 2.7-4.9 2.6-2.5 21.6-17.4 21.3-16z" fill="#f6b400"/><path d="m28.3 7.5c-.9 4.9-2.1 12.2-2.7 19.5 0 0-20.3-2.4-21.4 2.5 0-.3.4-3.2 2.7-5.5 2.6-2.5 21.7-17.9 21.4-16.5z" fill="#d19500"/><path d="m4.2 28.4v1.1c.2-.9.6-1.5 1.3-2.5 1.5-1.9 3.9-2.4 4.9-2.5 4.9-.7 12.3-1.4 19.6-1.6 13-.4 21.6.7 21.6.7l19.4-17.5s-10.6-1.8-21.5-3.1c-7.2-.9-13.5-1.3-17-1.5-.3 0-2.8-.3-5.2 2-2.6 2.4-15.7 14.9-20.9 19.9-2.4 2.2-2.2 4.7-2.2 5z" fill="#e7352c"/><path d="m69.3 50.6c-4.9.7-12.3 1.5-19.6 1.8-13 .4-21.7-.7-21.7-.7l-18.3 17.4s9.7 1.9 20.6 3.1c6.7.8 12.6 1.2 16.2 1.4.3 0 .7-.2.9-.2.3 0 2.8-.5 5.2-2.7 2.6-2.5 18.1-20.3 16.7-20.1z" fill="#00a245"/><path d="m69.3 50.6c-4.9.7-12.3 1.5-19.6 1.8 0 0 1.4 20.4-3.5 21.2.3 0 3.6-.2 6-2.4 2.5-2.5 18.5-20.8 17.1-20.6z" fill="#049940"/><path d="m47.8 73.6c-.4 0-.7-.1-1.1-.1.9-.2 1.5-.5 2.5-1.2 2-1.4 2.6-3.8 2.8-4.8.9-4.9 2.1-12.2 2.6-19.5 1-13 .4-21.6.4-21.6l18.3-17.4s1.3 9.7 2.1 20.7c.5 7.2.6 13.5.7 17 0 .3.2 2.8-2.2 5.1-2.6 2.4-15.7 14.9-20.9 19.9-2.5 2.3-5 1.9-5.2 1.9z" fill="#3c76bb"/><path d="m340.5 17.4 35.4-8c4.3-.9 8.4 1.7 9.4 6 .9 4.3-1.7 8.4-6 9.4l-35.4 8c-4.3.9-8.4-1.7-9.4-6-.9-4.2 1.8-8.4 6-9.4z" fill="#4caf50"/><path d="m340.7 30c-.1-.4 0-.7.2-1s.5-.5.9-.6.7 0 1 .2.5.5.6.9 0 .7-.2 1-.5.5-.9.6-.7 0-1-.2-.5-.5-.6-.9z" fill="#fff"/><path d="m343.9 25c-.2-.7-.3-1.4-.2-2.1s.3-1.4.6-2c.3-.7.7-1.1 1.3-1.6s1.3-.8 2-.9c.7-.2 1.3-.2 2-.1s1 .3 1.4.5c.2.1.3.2.4.3.2.2.3.3.3.5s.2.3.2.6c0 .2 0 .4-.1.6 0 .1-.1.2-.2.3s-.2.2-.3.3c-.2.1-.3.1-.5.1s-.3-.1-.6-.3c-.3-.3-.7-.4-.9-.6-.3-.1-.7-.1-1.1 0s-.7.3-1 .5c-.3.3-.5.6-.7.9s-.3.7-.3 1.2 0 .9.2 1.4c.2.6.3.9.6 1.4.3.4.5.7.8.9.3.3.7.4.9.4.3.1.7.1.9 0s.5-.1.7-.2.3-.2.4-.3.2-.2.3-.3.2-.2.2-.3c.1-.1.2-.3.3-.4.1-.2.3-.3.3-.3.2-.1.3-.2.5-.2s.4 0 .6.1c.3.2.6.3.7.5.1.3.1.5 0 .9-.2.5-.5.9-1 1.4-.6.4-1.3.7-2.1.9s-1.6.3-2.2.1c-.7-.1-1.3-.3-1.9-.7s-1-.9-1.4-1.5c-.6-.4-.8-1.2-1.1-2z" fill="#fff"/><path d="m357 16.1c.9-.3 1.7-.3 2.4-.1s1.3.4 1.9.8c.5.4.9.9 1.3 1.6.3.7.7 1.4.8 2.1.2.8.3 1.5.3 2.2s-.2 1.4-.5 2-.7 1-1.3 1.4-1.3.7-2.1.9c-.9.3-1.7.3-2.3.1-.7-.2-1.3-.4-1.8-.8-.5-.3-.9-.9-1.3-1.5-.3-.7-.6-1.4-.8-2.1-.2-.8-.3-1.5-.3-2.2s.2-1.4.5-2 .7-1.1 1.3-1.5c.4-.3 1.1-.6 1.9-.9zm2.1 8.9c.9-.2 1.4-.7 1.7-1.3.3-.7.3-1.5.1-2.6s-.7-1.9-1.1-2.4c-.6-.6-1.3-.7-2.1-.5-.5.1-.8.3-1.1.6s-.5.6-.6.9-.2.7-.2 1.2c0 .4.1.9.2 1.4.3 1 .7 1.9 1.1 2.3.4.5 1.2.7 2 .4z" fill="#fff"/><path d="m377.5 16.3c-.1-.4-.3-.8-.3-1-.2-.3-.3-.6-.5-.7-.2-.2-.4-.3-.7-.3s-.6 0-.9.1-.6.2-.9.3c-.3.2-.5.3-.7.5-.2.3-.3.5-.3.8s0 .7.1 1.2l1.3 5.5c.1.3 0 .5-.3.7-.2.3-.5.3-.8.5-.3.1-.7.1-.9 0-.3-.1-.4-.3-.5-.5l-1.3-5.4c-.2-.8-.5-1.4-.8-1.8-.3-.3-.9-.5-1.7-.3-.3.1-.6.2-.8.3-.3.2-.5.3-.6.5-.2.3-.3.5-.3.8s0 .7.1 1.2l1.3 5.5c.1.3 0 .5-.3.7-.2.3-.5.3-.9.5-.4.1-.7.1-.9 0-.3-.1-.4-.3-.4-.5l-2-9.1c-.1-.3 0-.4.2-.6s.5-.3.9-.4c.3-.1.7-.1.9 0s.3.3.4.5l.3 1c.1-.6.3-1.1.7-1.6.3-.5.8-.8 1.4-.9.8-.2 1.5-.2 2 .1s1 .7 1.4 1.3c.3-.7.6-1.3 1-1.8.5-.6 1.1-.9 2-1 .5-.1.9-.2 1.4-.1s.9.2 1.4.4c.5.3.8.6 1.1.9.3.4.6.9.7 1.4l1.5 6.5c.1.3.1.4 0 .6s-.3.3-.8.5c-.5.1-.8.2-1 .1-.3-.1-.3-.3-.4-.6z" fill="#fff"/><path d="m234.2 45.6h-7.7c-.4 0-.8-.3-.8-.8 0-.4.3-.8.8-.8h7.7c.4 0 .8.3.8.8-.1.4-.4.8-.8.8z" fill="#898989" opacity=".62"/></svg>