<svg width="173" height="64" viewBox="0 0 173 64" fill="none" xmlns="http://www.w3.org/2000/svg">
<path fill-rule="evenodd" clip-rule="evenodd" d="M44.0803 19H47.0659L47.9775 21.3171H59.6463V23.8406V26.8H57.1621V23.8406H36.605V26.8H34.1208V21.34H34.2803V21.3171H44.9919L44.0803 19ZM47.9575 36.3693V41.9645C50.4478 42.4778 55.2486 42.5065 58.7111 42.5271L59.3105 42.5308H59.9068V45H59.3105H58.6224C54.9069 45 50.1134 44.9773 47.3612 44.3883C42.8658 43.4369 40.0448 41.217 38.4852 39.5406C38.3017 40.0843 38.1182 40.628 37.8889 41.1263C37.2467 42.5988 36.4439 43.89 35.5036 44.9773L33.5999 43.4596C34.4486 42.5535 35.1825 41.4208 35.7559 40.0843C36.2146 38.9743 36.6045 37.7511 36.8797 36.4146C37.2008 34.7609 37.2925 33.3791 37.3155 32.6995H39.6549C39.632 33.3791 39.5631 34.7156 39.265 36.3693C39.4943 36.7544 41.2833 39.586 45.4575 41.217V30.0491H37.3155V27.58H56.7647V30.0491H47.9575V33.9001H56.7647V36.3693H47.9575ZM18.1957 19.26H15.2087L16.1207 21.5566H9.41705V20.0558L0.912063 21.4429V23.7395L4.49191 23.171V26.9001H0.912063V29.1967H3.96747L0 41.8393H2.32576L4.49191 35.0178V45H6.97728V29.1967H9.41705V26.9001H6.97728V22.7617L9.41705 22.3524V24.0578H27.0883V21.5566H19.1077L18.1957 19.26ZM22.8146 28.5036V31.1694H24.5972H27.0882V33.6758V45H24.5972V33.6758H22.8146V39.6455V42.1291H13.6274V41.8556V33.653H11.8677V44.9772H9.37666V33.653V31.1694H11.8677H13.6274V28.5036V26.02H16.0042H20.4378H22.8146V28.5036ZM20.4378 28.5036H16.0042V31.1694H20.4378V28.5036ZM20.4378 39.6227H16.0042V33.653H20.4378V39.6227Z" fill="white"/>
<rect opacity="0.3" x="69.9072" y="21.8972" width="1" height="20.2055" rx="0.5" fill="white"/>
<g clip-path="url(#clip0)">
<path fill-rule="evenodd" clip-rule="evenodd" d="M82.9072 33.3435V25.8268C82.9072 25.187 83.0477 24.7077 83.3286 24.3879C83.6084 24.068 83.9776 23.9075 84.4352 23.9075C84.9129 23.9075 85.2917 24.068 85.5726 24.3879C85.8535 24.7077 85.9929 25.187 85.9929 25.8268V33.5138C85.9929 34.3883 86.0886 35.1186 86.2791 35.7049C86.4696 36.2912 86.8069 36.7464 87.2921 37.0696C87.7772 37.3928 88.4561 37.5543 89.3286 37.5543C90.5341 37.5543 91.3864 37.2268 91.8854 36.5685C92.3834 35.9113 92.6334 34.9145 92.6334 33.5771V25.8279C92.6334 25.1816 92.7717 24.7001 93.0484 24.3835C93.325 24.0669 93.6964 23.9086 94.1603 23.9086C94.6242 23.9086 95.0009 24.0669 95.2882 24.3835C95.5754 24.7001 95.7191 25.1805 95.7191 25.8279V33.3446C95.7191 34.5673 95.6031 35.587 95.3711 36.4047C95.1329 37.232 94.6785 37.9766 94.0571 38.5576C93.5035 39.0834 92.8432 39.4768 92.1238 39.7094C91.3896 39.9507 90.5309 40.0719 89.5467 40.0719C88.3763 40.0719 87.3687 39.942 86.5228 39.6832C85.6779 39.4234 84.9884 39.0216 84.4554 38.478C83.9223 37.9343 83.5307 37.2377 83.2818 36.3883C83.0317 35.539 82.9072 34.5247 82.9072 33.3446V33.3435ZM98.6281 33.3435V25.8268C98.6281 25.187 98.7686 24.7077 99.0495 24.3879C99.3304 24.068 99.6985 23.9075 100.156 23.9075C100.635 23.9075 101.014 24.068 101.295 24.3879C101.574 24.7077 101.715 25.187 101.715 25.8268V33.5138C101.715 34.3883 101.811 35.1186 102 35.7049C102.192 36.2912 102.529 36.7464 103.013 37.0696C103.498 37.3928 104.177 37.5543 105.051 37.5543C106.255 37.5543 107.107 37.2268 107.606 36.5685C108.105 35.9113 108.354 34.9145 108.354 33.5771V25.8279C108.354 25.1816 108.493 24.7001 108.769 24.3835C109.047 24.0669 109.418 23.9086 109.882 23.9086C110.346 23.9086 110.722 24.0669 111.01 24.3835C111.297 24.7001 111.44 25.1805 111.44 25.8279V33.3446C111.44 34.5673 111.324 35.587 111.092 36.4047C110.854 37.232 110.399 37.9766 109.778 38.5576C109.224 39.0834 108.564 39.4768 107.845 39.7094C107.11 39.9507 106.252 40.0719 105.269 40.0719C104.098 40.0719 103.09 39.942 102.245 39.6832C101.4 39.4234 100.71 39.0216 100.176 38.478C99.6442 37.9343 99.2516 37.2377 99.0027 36.3883C98.7537 35.539 98.6281 34.5247 98.6281 33.3446V33.3435ZM120.242 33.7168H117.415V38.1417C117.415 38.7738 117.27 39.2531 116.979 39.5806C116.688 39.9081 116.32 40.0719 115.877 40.0719C115.413 40.0719 115.038 39.9092 114.755 39.5861C114.471 39.2629 114.33 38.788 114.33 38.1624V26.115C114.33 25.4185 114.485 24.9206 114.797 24.6226C115.109 24.3234 115.603 24.175 116.282 24.175H120.24C121.412 24.175 122.312 24.2667 122.943 24.4512C123.541 24.615 124.093 24.9179 124.558 25.3366C125.013 25.7493 125.356 26.2537 125.592 26.8508C125.828 27.448 125.946 28.1195 125.946 28.8651C125.946 30.458 125.467 31.6644 124.511 32.4854C123.556 33.3063 122.132 33.7168 120.242 33.7168ZM119.494 26.5517H117.415V31.3281H119.494C120.22 31.3281 120.829 31.2506 121.317 31.0934C121.805 30.9373 122.177 30.6818 122.434 30.3259C122.69 29.9711 122.818 29.5049 122.818 28.9295C122.818 28.2406 122.621 27.6784 122.226 27.245C121.782 26.7832 120.871 26.5517 119.494 26.5517ZM134.778 23.9075C136.357 23.9075 137.714 24.2372 138.846 24.8944C139.964 25.5356 140.862 26.5145 141.418 27.698C142 28.9099 142.29 30.3335 142.29 31.9679C142.29 33.1764 142.131 34.2747 141.812 35.2628C141.493 36.2508 141.015 37.1078 140.378 37.8316C139.73 38.5642 138.927 39.1336 138.03 39.4955C137.102 39.8787 136.039 40.0708 134.84 40.0708C133.648 40.0708 132.582 39.8743 131.64 39.4791C130.698 39.085 129.911 38.5293 129.281 37.8109C128.65 37.0925 128.175 36.229 127.852 35.2202C127.523 34.1624 127.36 33.0575 127.369 31.9471C127.369 30.7462 127.538 29.6435 127.874 28.6413C128.209 27.6391 128.696 26.7864 129.334 26.0833C129.981 25.3722 130.776 24.82 131.661 24.4676C132.576 24.0942 133.614 23.9075 134.778 23.9075ZM139.162 31.9471C139.162 30.803 138.983 29.8106 138.622 28.9721C138.263 28.1336 137.748 27.4982 137.08 27.0692C136.411 26.639 135.643 26.4251 134.778 26.4251C134.161 26.4251 133.592 26.543 133.068 26.781C132.547 27.0177 132.085 27.3731 131.717 27.8203C131.34 28.2756 131.042 28.8575 130.824 29.5638C130.606 30.2713 130.497 31.065 130.497 31.9471C130.497 32.8358 130.606 33.6393 130.824 34.3566C131.042 35.0739 131.351 35.67 131.75 36.1427C132.147 36.6143 132.604 36.9681 133.12 37.2028C133.656 37.4415 134.235 37.5613 134.82 37.5543C135.609 37.5543 136.335 37.3524 136.997 36.9473C137.658 36.5423 138.184 35.9167 138.576 35.0706C138.967 34.2245 139.163 33.1841 139.163 31.9471H139.162ZM151.185 23.9075C152.764 23.9075 154.12 24.2372 155.253 24.8944C156.371 25.5356 157.269 26.5145 157.825 27.698C158.407 28.9099 158.697 30.3335 158.697 31.9679C158.697 33.1764 158.538 34.2747 158.22 35.2628C157.9 36.2508 157.423 37.1078 156.785 37.8316C156.138 38.5642 155.334 39.1336 154.437 39.4955C153.509 39.8787 152.446 40.0708 151.247 40.0708C150.055 40.0708 148.989 39.8743 148.046 39.4791C147.105 39.085 146.319 38.5293 145.689 37.8109C145.058 37.0925 144.582 36.229 144.26 35.2202C143.93 34.1624 143.767 33.0575 143.777 31.9471C143.777 30.7462 143.945 29.6435 144.28 28.6413C144.616 27.6391 145.102 26.7864 145.74 26.0833C146.388 25.3721 147.183 24.8198 148.068 24.4676C148.983 24.0942 150.021 23.9075 151.185 23.9075ZM155.569 31.9471C155.569 30.803 155.389 29.8106 155.03 28.9721C154.669 28.1336 154.155 27.4982 153.487 27.0692C152.818 26.639 152.05 26.4251 151.185 26.4251C150.568 26.4251 149.999 26.543 149.475 26.781C148.954 27.0177 148.492 27.3731 148.124 27.8203C147.747 28.2756 147.45 28.8575 147.23 29.5638C147.013 30.2713 146.904 31.065 146.904 31.9471C146.904 32.8358 147.013 33.6393 147.231 34.3566C147.45 35.0739 147.758 35.67 148.156 36.1427C148.554 36.6143 149.012 36.9681 149.528 37.2028C150.064 37.4415 150.643 37.5613 151.227 37.5543C152.016 37.5543 152.742 37.3524 153.404 36.9473C154.065 36.5423 154.591 35.9167 154.983 35.0706C155.374 34.2245 155.57 33.1841 155.57 31.9471H155.569ZM166.802 33.7157H163.976V38.1417C163.976 38.7738 163.83 39.2531 163.54 39.5806C163.248 39.9081 162.881 40.0719 162.438 40.0719C161.974 40.0719 161.6 39.9092 161.316 39.5861C161.032 39.2629 160.89 38.788 160.89 38.1624V26.115C160.89 25.4185 161.046 24.9206 161.358 24.6226C161.669 24.3234 162.165 24.175 162.844 24.175H166.802C167.972 24.175 168.874 24.2667 169.505 24.4512C170.102 24.615 170.655 24.9179 171.12 25.3366C171.573 25.7493 171.918 26.2537 172.154 26.8508C172.388 27.448 172.507 28.1195 172.507 28.8651C172.507 30.458 172.028 31.6644 171.073 32.4854C170.117 33.3063 168.694 33.7168 166.802 33.7168V33.7157ZM166.054 26.5517H163.976V31.3281H166.054C166.782 31.3281 167.389 31.2506 167.878 31.0934C168.366 30.9373 168.738 30.6818 168.995 30.3259C169.25 29.9711 169.379 29.5049 169.379 28.9295C169.379 28.2406 169.182 27.6784 168.787 27.245C168.344 26.7832 167.433 26.5517 166.054 26.5517Z" fill="white"/>
</g>
<defs>
<clipPath id="clip0">
<rect width="89.6" height="16.1644" fill="white" transform="translate(82.9072 23.9075)"/>
</clipPath>
</defs>
</svg>
