<?xml version="1.0" encoding="utf-8"?>
<!-- Generator: Adobe Illustrator 24.1.1, SVG Export Plug-In . SVG Version: 6.00 Build 0)  -->
<svg version="1.1" id="a" xmlns="http://www.w3.org/2000/svg" xmlns:xlink="http://www.w3.org/1999/xlink" x="0px" y="0px"
	 width="456.15px" height="53.72px" viewBox="0 0 456.15 53.72" style="enable-background:new 0 0 456.15 53.72;"
	 xml:space="preserve">
<style type="text/css">
	.st0{fill-rule:evenodd;clip-rule:evenodd;fill:#FEFEFE;}
	.st1{fill-rule:evenodd;clip-rule:evenodd;fill:#004266;}
	.st2{fill:#FFFFFF;}
	.st3{fill-rule:evenodd;clip-rule:evenodd;fill:#3AB6F2;}
</style>
<path class="st0" d="M38.82,15.2c-0.344-0.35-0.683-0.648-1.021-0.919c-0.556-0.887-3.936-4.529-5.339-5.921
	c-0.73-0.77-3.18-2.42-4.73-2.8C26.09,5.17,7.29,5.32,5.25,5.4v21.53c-0.01,1.36,0.516,5.199,1.806,5.959
	c0,0,7.393,6.847,7.333,7.167c-0.013-0.079,3.083,2.492,5.711,2.564c6.19,0.18,14.63,0,21.05-0.03V27.8
	C41.15,22.67,41.9,18.34,38.82,15.2z"/>
<path class="st1" d="M6.9,32.18c-1.29-0.76-1.66-3.89-1.66-5.25V5.38C7.29,5.3,26.09,5.15,27.73,5.54c1.55,0.37,4,2.03,4.73,2.8
	c-0.31-0.55-4.11-4.74-4.7-5.29C25.83,1.28,24.3,0.07,20.51,0H0.05C-0.02,6.47,0,12.94,0,19.41c0,5.29,0.22,6.93,4.01,10.73
	C7.76,33.9,6.64,32.59,6.9,32.18C6.9,32.18,6.9,32.18,6.9,32.18z"/>
<g>
	<path class="st2" d="M69.06,28.91H58.87v13.32h-3.79V12.07h15.7v3.25H58.87v10.33h10.19v3.25V28.91z"/>
	<path class="st2" d="M83.67,23.26c-0.51-0.1-1.06-0.15-1.66-0.15c-1.88,0-3.19,1.03-3.94,3.09v16.03H74.4V19.82h3.56l0.06,2.28
		c0.98-1.79,2.37-2.69,4.16-2.69c0.58,0,1.06,0.1,1.45,0.29l0.02,3.56H83.67z"/>
	<path class="st2" d="M94.93,42.64c-2.79,0-4.93-0.83-6.42-2.5s-2.25-4.1-2.28-7.32v-2.71c0-3.34,0.73-5.96,2.19-7.86
		c1.46-1.9,3.49-2.85,6.1-2.85s4.58,0.84,5.88,2.51c1.3,1.67,1.96,4.27,1.99,7.81v2.4H89.88v0.52c0,2.4,0.45,4.15,1.36,5.24
		c0.9,1.09,2.21,1.64,3.9,1.64c1.08,0,2.03-0.2,2.85-0.61s1.59-1.05,2.31-1.94l1.91,2.32c-1.59,2.24-4.01,3.35-7.27,3.35
		L94.93,42.64z M94.52,22.55c-1.52,0-2.64,0.52-3.38,1.56c-0.73,1.04-1.15,2.66-1.24,4.86h8.82v-0.5c-0.1-2.13-0.48-3.64-1.15-4.56
		c-0.67-0.91-1.69-1.37-3.05-1.37V22.55z"/>
	<path class="st2" d="M114.79,42.64c-2.79,0-4.93-0.83-6.42-2.5s-2.25-4.1-2.28-7.32v-2.71c0-3.34,0.73-5.96,2.19-7.86
		c1.46-1.9,3.49-2.85,6.1-2.85s4.58,0.84,5.88,2.51c1.3,1.67,1.96,4.27,1.99,7.81v2.4h-12.51v0.52c0,2.4,0.45,4.15,1.36,5.24
		c0.9,1.09,2.21,1.64,3.9,1.64c1.08,0,2.03-0.2,2.85-0.61s1.59-1.05,2.31-1.94l1.91,2.32c-1.59,2.24-4.01,3.35-7.27,3.35
		L114.79,42.64z M114.38,22.55c-1.52,0-2.64,0.52-3.38,1.56c-0.73,1.04-1.15,2.66-1.24,4.86h8.82v-0.5
		c-0.1-2.13-0.48-3.64-1.15-4.56c-0.67-0.91-1.69-1.37-3.05-1.37V22.55z"/>
	<path class="st2" d="M136.87,42.23V12.07h7.19c3.52,0,6.25,1.1,8.2,3.3s2.92,5.3,2.92,9.29v5.05c0,3.99-0.99,7.07-2.96,9.25
		c-1.97,2.17-4.84,3.26-8.59,3.26h-6.75L136.87,42.23z M140.66,15.33v23.65h3.04c2.66,0,4.61-0.76,5.84-2.29
		c1.23-1.53,1.86-3.79,1.88-6.79v-5.35c0-3.18-0.61-5.51-1.83-7s-3.07-2.23-5.54-2.23h-3.4L140.66,15.33z"/>
	<path class="st2" d="M159.8,29.99c0-3.26,0.79-5.84,2.37-7.74s3.67-2.85,6.27-2.85s4.68,0.93,6.26,2.78s2.39,4.37,2.43,7.56v2.36
		c0,3.25-0.79,5.81-2.36,7.71c-1.57,1.89-3.67,2.84-6.3,2.84s-4.68-0.92-6.24-2.75c-1.57-1.84-2.38-4.32-2.43-7.46V30L159.8,29.99z
		 M163.47,32.1c0,2.31,0.45,4.12,1.36,5.44c0.9,1.32,2.12,1.98,3.66,1.98c3.23,0,4.89-2.33,4.99-7v-2.53c0-2.29-0.46-4.1-1.37-5.44
		c-0.91-1.33-2.13-2-3.67-2s-2.71,0.67-3.61,2s-1.36,3.14-1.36,5.42L163.47,32.1L163.47,32.1z"/>
	<path class="st2" d="M198.57,35.79l3.4-15.97h3.62l-5.49,22.41h-2.92l-4.37-16.03l-4.27,16.03h-2.94l-5.45-22.41h3.6l3.48,15.57
		l4.16-15.57h2.9l4.27,15.97H198.57z"/>
	<path class="st2" d="M212.88,19.82l0.1,2.42c1.42-1.89,3.24-2.84,5.45-2.84c3.96,0,5.97,2.64,6.03,7.93v14.89h-3.65V27.49
		c0-1.75-0.29-3-0.88-3.74c-0.59-0.74-1.47-1.11-2.64-1.11c-0.91,0-1.73,0.3-2.45,0.91s-1.31,1.4-1.75,2.38v16.28h-3.67V19.82
		H212.88L212.88,19.82z"/>
	<path class="st2" d="M233.9,42.23h-3.67V10.42h3.67V42.23z"/>
	<path class="st2" d="M238.89,29.99c0-3.26,0.79-5.84,2.37-7.74s3.67-2.85,6.27-2.85s4.68,0.93,6.26,2.78s2.39,4.37,2.43,7.56v2.36
		c0,3.25-0.79,5.81-2.36,7.71c-1.57,1.89-3.67,2.84-6.3,2.84s-4.68-0.92-6.24-2.75c-1.57-1.84-2.38-4.32-2.43-7.46V30V29.99z
		 M242.56,32.1c0,2.31,0.45,4.12,1.36,5.44c0.9,1.32,2.12,1.98,3.66,1.98c3.23,0,4.89-2.33,4.99-7v-2.53c0-2.29-0.46-4.1-1.37-5.44
		c-0.91-1.33-2.13-2-3.67-2s-2.71,0.67-3.61,2s-1.36,3.14-1.36,5.42L242.56,32.1L242.56,32.1z"/>
	<path class="st2" d="M272.48,42.23c-0.22-0.48-0.38-1.3-0.48-2.44c-1.3,1.91-2.96,2.86-4.97,2.86s-3.61-0.57-4.75-1.71
		s-1.71-2.74-1.71-4.82c0-2.28,0.77-4.09,2.32-5.43c1.55-1.34,3.67-2.02,6.36-2.05h2.69v-2.38c0-1.34-0.3-2.29-0.89-2.86
		c-0.59-0.57-1.5-0.85-2.71-0.85c-1.1,0-2,0.33-2.69,0.98c-0.69,0.66-1.04,1.49-1.04,2.5h-3.67c0-1.15,0.34-2.24,1.01-3.28
		c0.68-1.04,1.59-1.86,2.73-2.45s2.42-0.89,3.83-0.89c2.29,0,4.03,0.57,5.23,1.71c1.19,1.14,1.8,2.8,1.83,4.98v11.31
		c0.01,1.73,0.25,3.22,0.7,4.49v0.33h-3.81L272.48,42.23z M267.59,39.31c0.9,0,1.75-0.25,2.57-0.75c0.81-0.5,1.41-1.12,1.78-1.86
		v-5.34h-2.07c-1.74,0.03-3.11,0.42-4.12,1.17c-1.01,0.75-1.51,1.81-1.51,3.16c0,1.27,0.26,2.19,0.77,2.77
		c0.51,0.57,1.37,0.86,2.59,0.86L267.59,39.31z"/>
	<path class="st2" d="M280.5,30.01c0-3.45,0.65-6.08,1.94-7.89s3.14-2.71,5.56-2.71c2.14,0,3.81,0.87,5.01,2.61v-11.6h3.67v31.81
		h-3.36l-0.19-2.4c-1.2,1.88-2.92,2.82-5.16,2.82s-4.14-0.9-5.46-2.7c-1.32-1.8-1.99-4.35-2.02-7.63v-2.3L280.5,30.01z
		 M284.17,32.09c0,2.51,0.37,4.35,1.12,5.53s1.96,1.77,3.65,1.77c1.82,0,3.18-0.92,4.08-2.75V25.35c-0.94-1.79-2.29-2.69-4.06-2.69
		s-2.9,0.59-3.65,1.77s-1.13,2.99-1.14,5.43L284.17,32.09L284.17,32.09z"/>
	<path class="st2" d="M317.43,12.07l7.87,24.6l7.87-24.6h4.89v30.15h-3.79V30.48l0.35-11.76l-7.89,23.51h-2.9l-7.85-23.42
		l0.35,11.68v11.74h-3.79V12.07H317.43z"/>
	<path class="st2" d="M355.6,42.23c-0.22-0.48-0.38-1.3-0.48-2.44c-1.3,1.91-2.96,2.86-4.97,2.86s-3.61-0.57-4.75-1.71
		s-1.71-2.74-1.71-4.82c0-2.28,0.77-4.09,2.32-5.43c1.55-1.34,3.67-2.02,6.36-2.05h2.69v-2.38c0-1.34-0.3-2.29-0.89-2.86
		c-0.59-0.57-1.5-0.85-2.71-0.85c-1.1,0-2,0.33-2.69,0.98c-0.69,0.66-1.04,1.49-1.04,2.5h-3.67c0-1.15,0.34-2.24,1.01-3.28
		c0.68-1.04,1.59-1.86,2.73-2.45c1.15-0.59,2.42-0.89,3.83-0.89c2.29,0,4.04,0.57,5.23,1.71s1.8,2.8,1.83,4.98v11.31
		c0.01,1.73,0.25,3.22,0.7,4.49v0.33h-3.81L355.6,42.23z M350.71,39.31c0.9,0,1.75-0.25,2.57-0.75c0.81-0.5,1.41-1.12,1.78-1.86
		v-5.34h-2.07c-1.74,0.03-3.11,0.42-4.12,1.17c-1.01,0.75-1.51,1.81-1.51,3.16c0,1.27,0.26,2.19,0.77,2.77
		c0.51,0.57,1.37,0.86,2.59,0.86L350.71,39.31z"/>
	<path class="st2" d="M367.84,19.82l0.1,2.42c1.42-1.89,3.24-2.84,5.45-2.84c3.96,0,5.97,2.64,6.03,7.93v14.89h-3.65V27.49
		c0-1.75-0.29-3-0.88-3.74s-1.47-1.11-2.64-1.11c-0.91,0-1.73,0.3-2.45,0.91s-1.31,1.4-1.75,2.38v16.28h-3.67V19.82H367.84
		L367.84,19.82z"/>
	<path class="st2" d="M396.44,42.23c-0.22-0.48-0.38-1.3-0.48-2.44c-1.3,1.91-2.96,2.86-4.97,2.86s-3.61-0.57-4.75-1.71
		s-1.71-2.74-1.71-4.82c0-2.28,0.77-4.09,2.32-5.43c1.55-1.34,3.67-2.02,6.36-2.05h2.69v-2.38c0-1.34-0.3-2.29-0.89-2.86
		c-0.59-0.57-1.5-0.85-2.71-0.85c-1.11,0-2,0.33-2.69,0.98c-0.69,0.66-1.04,1.49-1.04,2.5h-3.67c0-1.15,0.34-2.24,1.01-3.28
		c0.68-1.04,1.59-1.86,2.73-2.45c1.15-0.59,2.42-0.89,3.83-0.89c2.29,0,4.03,0.57,5.23,1.71c1.19,1.14,1.8,2.8,1.83,4.98v11.31
		c0.01,1.73,0.25,3.22,0.71,4.49v0.33h-3.81L396.44,42.23z M391.55,39.31c0.9,0,1.75-0.25,2.57-0.75s1.41-1.12,1.78-1.86v-5.34
		h-2.07c-1.74,0.03-3.11,0.42-4.12,1.17c-1.01,0.75-1.51,1.81-1.51,3.16c0,1.27,0.25,2.19,0.77,2.77c0.51,0.57,1.37,0.86,2.59,0.86
		L391.55,39.31z"/>
	<path class="st2" d="M404.49,30.01c0-3.49,0.63-6.13,1.91-7.92s3.13-2.68,5.57-2.68c2.28,0,4.01,0.97,5.2,2.92l0.19-2.51h3.31
		v22.62c0,2.78-0.71,4.91-2.13,6.39s-3.4,2.23-5.94,2.23c-1.1,0-2.34-0.27-3.72-0.82c-1.37-0.55-2.41-1.22-3.1-2.02l1.49-2.53
		c1.52,1.49,3.2,2.24,5.03,2.24c3.05,0,4.62-1.66,4.7-4.99v-2.92c-1.19,1.75-2.87,2.63-5.05,2.63c-2.32,0-4.13-0.87-5.43-2.62
		s-1.97-4.26-2.03-7.53L404.49,30.01L404.49,30.01z M408.16,32.09c0,2.51,0.37,4.35,1.11,5.53s1.95,1.77,3.63,1.77
		c1.82,0,3.19-0.93,4.1-2.79V25.41c-0.95-1.83-2.31-2.75-4.06-2.75s-2.9,0.59-3.65,1.77s-1.12,2.99-1.14,5.43v2.23H408.16z"/>
	<path class="st2" d="M434.13,42.64c-2.79,0-4.93-0.83-6.42-2.5s-2.25-4.1-2.28-7.32v-2.71c0-3.34,0.73-5.96,2.19-7.86
		c1.46-1.9,3.49-2.85,6.1-2.85s4.58,0.84,5.88,2.51c1.3,1.67,1.96,4.27,1.99,7.81v2.4h-12.51v0.52c0,2.4,0.45,4.15,1.36,5.24
		c0.9,1.09,2.21,1.64,3.9,1.64c1.08,0,2.03-0.2,2.85-0.61s1.59-1.05,2.31-1.94l1.91,2.32c-1.59,2.24-4.01,3.35-7.27,3.35
		L434.13,42.64z M433.71,22.55c-1.52,0-2.64,0.52-3.38,1.56c-0.73,1.04-1.15,2.66-1.24,4.86h8.82v-0.5
		c-0.1-2.13-0.48-3.64-1.15-4.56c-0.67-0.91-1.69-1.37-3.05-1.37L433.71,22.55z"/>
	<path class="st2" d="M455.23,23.26c-0.51-0.1-1.06-0.15-1.66-0.15c-1.88,0-3.19,1.03-3.93,3.09v16.03h-3.67V19.82h3.56l0.06,2.28
		c0.98-1.79,2.37-2.69,4.16-2.69c0.58,0,1.06,0.1,1.45,0.29l0.02,3.56H455.23z"/>
</g>
<path class="st0" d="M14.389,40.056c-0.18-1.08-2.209-3.436-2.359-5.276l-0.04-5.22l11.07,0.08v4.76
	c1.26-0.46,12.75-7.53,14.18-8.39c-0.85-0.7-2.39-1.53-3.34-2.13l-10.84-6.67v5.19L12,22.35l0.02-9.84
	c1.38-0.19,16.73-0.06,19.52-0.06c4.24,0,6.293,1.883,6.293,1.883c-0.46-0.8-3.944-4.556-5.373-5.973c-0.73-0.77-3.18-2.42-4.73-2.8
	C26.09,5.17,7.29,5.32,5.25,5.4v21.53c-0.01,1.36,0.516,5.199,1.806,5.959C7.056,32.889,14.449,39.736,14.389,40.056z"/>
<path class="st3" d="M12.13,22.32l11.05-0.03v-5.11c0.89,0.3,13.06,8.06,14.19,8.77c-1.41,1.08-11.99,7.18-14.19,8.44v-4.83
	l-11.07,0.05c0.12,3.99-0.47,5.87,1.37,9.01c1.24,2.12,3.37,3.91,6.62,4c6.19,0.18,14.63,0,21.05-0.03V27.8
	c0-5.13,0.75-9.46-2.33-12.6c-3.52-3.59-6.63-2.77-11.9-2.77l-14.81,0.06v9.83l0,0H12.13z"/>
</svg>
